<svg id="a" xmlns="http://www.w3.org/2000/svg" viewBox="0 0 1000 1000" fill="#C1384A"><path d="m500,0C223.858,0,0,223.858,0,500s223.858,500,500,500,500-223.858,500-500S776.142,0,500,0Zm-1.009,896.995c-93.742,0-179.894-32.49-247.812-86.824l79.298-67.983c35.071-30.067,87.751-26.548,118.512,7.917,56.399,63.191,152.447,71.046,218.364,17.858l6.878-5.55c36.001-29.05,86.963-27.264,120.779,2.126-72.695,81.291-178.382,132.456-296.018,132.456Zm340.134-192.153c-60.385-48.93-148.633-50.747-211.418-.085l-6.878,5.55c-35.189,28.394-86.462,24.201-116.57-9.533-57.622-64.562-156.307-71.153-222.003-14.83l-84.6,72.529c-51.416-59.886-85.287-135.273-93.642-218.191l11.165-10.476c35.136-32.969,90.191-31.767,123.853,2.705,57.889,59.281,151.1,65.539,216.395,14.528l51.594-40.307c36.873-28.806,88.995-27.411,124.273,3.325l100.449,87.516,48.667-55.857-100.45-87.516c-62.041-54.054-153.705-56.506-218.547-5.848l-51.595,40.309c-35.538,27.765-86.272,24.359-117.78-7.907-49.91-51.11-125.416-62.413-186.628-33.039,25.596-194.541,192.052-344.707,393.582-344.707,102.076,0,195.154,38.525,265.487,101.828-24.882,6.454-48.65,18.726-69.192,36.929l-6.614,5.862c-33.841,29.988-85.253,28.166-116.886-4.142-60.54-61.833-159.424-63.863-222.45-4.568l-92.279,86.815,50.764,53.958,92.279-86.815c33.646-31.654,86.433-30.57,118.751,2.438,59.255,60.521,155.563,63.935,218.955,7.76l6.615-5.862c23.241-20.596,53.859-27.622,82.106-21.606,43.818,63.835,69.457,141.121,69.457,224.396,0,74.945-20.766,145.039-56.859,204.843Z" fill-rule="evenodd"/></svg>